<mxfile host="app.diagrams.net" modified="2020-11-30T10:53:33.258Z" agent="5.0 (X11)" etag="CEfk6i7qIAyenNVwcnKG" version="13.10.4" type="github" pages="4">
  <diagram id="8uqTqVBk6DSJwEeCUFeT" name="Page-1">
    <mxGraphModel dx="981" dy="588" grid="1" gridSize="10" guides="1" tooltips="1" connect="1" arrows="1" fold="1" page="1" pageScale="1" pageWidth="827" pageHeight="1169" math="0" shadow="0">
      <root>
        <mxCell id="0" />
        <mxCell id="1" parent="0" />
        <mxCell id="9dXQxoBgT0vbuVRmPbSB-5" value="Question" style="swimlane;fontStyle=0;childLayout=stackLayout;horizontal=1;startSize=26;fillColor=none;horizontalStack=0;resizeParent=1;resizeParentMax=0;resizeLast=0;collapsible=1;marginBottom=0;" parent="1" vertex="1">
          <mxGeometry x="40" y="230" width="160" height="46" as="geometry" />
        </mxCell>
        <mxCell id="DPjhXOC8vFuDMg0-mEuA-2" value="textQuestion" style="text;html=1;align=center;verticalAlign=middle;resizable=0;points=[];autosize=1;" vertex="1" parent="9dXQxoBgT0vbuVRmPbSB-5">
          <mxGeometry y="26" width="160" height="20" as="geometry" />
        </mxCell>
        <mxCell id="9dXQxoBgT0vbuVRmPbSB-12" value="Reponse" style="swimlane;fontStyle=0;childLayout=stackLayout;horizontal=1;startSize=26;fillColor=none;horizontalStack=0;resizeParent=1;resizeParentMax=0;resizeLast=0;collapsible=1;marginBottom=0;" parent="1" vertex="1">
          <mxGeometry x="350" y="230" width="160" height="46" as="geometry" />
        </mxCell>
        <mxCell id="DPjhXOC8vFuDMg0-mEuA-1" value="textReponse" style="text;html=1;align=center;verticalAlign=middle;resizable=0;points=[];autosize=1;" vertex="1" parent="9dXQxoBgT0vbuVRmPbSB-12">
          <mxGeometry y="26" width="160" height="20" as="geometry" />
        </mxCell>
        <mxCell id="9dXQxoBgT0vbuVRmPbSB-22" value="Proposition" style="endArrow=diamondThin;endFill=0;endSize=24;html=1;entryX=1;entryY=0.5;entryDx=0;entryDy=0;exitX=0;exitY=0.5;exitDx=0;exitDy=0;" parent="1" source="9dXQxoBgT0vbuVRmPbSB-12" target="9dXQxoBgT0vbuVRmPbSB-5" edge="1">
          <mxGeometry width="160" relative="1" as="geometry">
            <mxPoint x="180" y="330" as="sourcePoint" />
            <mxPoint x="340" y="330" as="targetPoint" />
            <Array as="points">
              <mxPoint x="270" y="210" />
            </Array>
          </mxGeometry>
        </mxCell>
        <mxCell id="9dXQxoBgT0vbuVRmPbSB-26" value="" style="endArrow=none;html=1;edgeStyle=orthogonalEdgeStyle;exitX=0.75;exitY=1;exitDx=0;exitDy=0;entryX=0.25;entryY=1;entryDx=0;entryDy=0;" parent="1" source="9dXQxoBgT0vbuVRmPbSB-5" target="9dXQxoBgT0vbuVRmPbSB-12" edge="1">
          <mxGeometry relative="1" as="geometry">
            <mxPoint x="220" y="310" as="sourcePoint" />
            <mxPoint x="380" y="310" as="targetPoint" />
            <Array as="points">
              <mxPoint x="160" y="320" />
              <mxPoint x="380" y="320" />
              <mxPoint x="380" y="278" />
            </Array>
          </mxGeometry>
        </mxCell>
        <mxCell id="9dXQxoBgT0vbuVRmPbSB-27" value="*" style="edgeLabel;resizable=0;html=1;align=left;verticalAlign=bottom;" parent="9dXQxoBgT0vbuVRmPbSB-26" connectable="0" vertex="1">
          <mxGeometry x="-1" relative="1" as="geometry">
            <mxPoint y="22" as="offset" />
          </mxGeometry>
        </mxCell>
        <mxCell id="9dXQxoBgT0vbuVRmPbSB-28" value="1" style="edgeLabel;resizable=0;html=1;align=right;verticalAlign=bottom;" parent="9dXQxoBgT0vbuVRmPbSB-26" connectable="0" vertex="1">
          <mxGeometry x="1" relative="1" as="geometry">
            <mxPoint x="-10" y="32" as="offset" />
          </mxGeometry>
        </mxCell>
        <mxCell id="9dXQxoBgT0vbuVRmPbSB-29" value="Bonne Reponse" style="text;html=1;align=center;verticalAlign=middle;resizable=0;points=[];autosize=1;" parent="1" vertex="1">
          <mxGeometry x="220" y="330" width="110" height="20" as="geometry" />
        </mxCell>
        <mxCell id="9dXQxoBgT0vbuVRmPbSB-30" value="Categorie" style="swimlane;fontStyle=0;childLayout=stackLayout;horizontal=1;startSize=26;fillColor=none;horizontalStack=0;resizeParent=1;resizeParentMax=0;resizeLast=0;collapsible=1;marginBottom=0;" parent="1" vertex="1">
          <mxGeometry x="200" y="50" width="140" height="52" as="geometry" />
        </mxCell>
        <mxCell id="9dXQxoBgT0vbuVRmPbSB-31" value="textCategorie" style="text;strokeColor=none;fillColor=none;align=left;verticalAlign=top;spacingLeft=4;spacingRight=4;overflow=hidden;rotatable=0;points=[[0,0.5],[1,0.5]];portConstraint=eastwest;" parent="9dXQxoBgT0vbuVRmPbSB-30" vertex="1">
          <mxGeometry y="26" width="140" height="26" as="geometry" />
        </mxCell>
        <mxCell id="9dXQxoBgT0vbuVRmPbSB-43" value="" style="endArrow=none;html=1;edgeStyle=orthogonalEdgeStyle;entryX=0;entryY=0.25;entryDx=0;entryDy=0;exitX=0.25;exitY=0;exitDx=0;exitDy=0;" parent="1" target="9dXQxoBgT0vbuVRmPbSB-30" edge="1" source="9dXQxoBgT0vbuVRmPbSB-5">
          <mxGeometry relative="1" as="geometry">
            <mxPoint x="80" y="220" as="sourcePoint" />
            <mxPoint x="240" y="420" as="targetPoint" />
            <Array as="points">
              <mxPoint x="80" y="90" />
              <mxPoint x="120" y="90" />
              <mxPoint x="120" y="63" />
            </Array>
          </mxGeometry>
        </mxCell>
        <mxCell id="9dXQxoBgT0vbuVRmPbSB-44" value="*" style="edgeLabel;resizable=0;html=1;align=left;verticalAlign=bottom;" parent="9dXQxoBgT0vbuVRmPbSB-43" connectable="0" vertex="1">
          <mxGeometry x="-1" relative="1" as="geometry">
            <mxPoint as="offset" />
          </mxGeometry>
        </mxCell>
        <mxCell id="9dXQxoBgT0vbuVRmPbSB-45" value="1" style="edgeLabel;resizable=0;html=1;align=right;verticalAlign=bottom;" parent="9dXQxoBgT0vbuVRmPbSB-43" connectable="0" vertex="1">
          <mxGeometry x="1" relative="1" as="geometry">
            <mxPoint x="-10" y="17" as="offset" />
          </mxGeometry>
        </mxCell>
        <mxCell id="9dXQxoBgT0vbuVRmPbSB-46" value="Partie" style="swimlane;fontStyle=0;childLayout=stackLayout;horizontal=1;startSize=26;fillColor=none;horizontalStack=0;resizeParent=1;resizeParentMax=0;resizeLast=0;collapsible=1;marginBottom=0;" parent="1" vertex="1">
          <mxGeometry x="360" y="420" width="140" height="78" as="geometry" />
        </mxCell>
        <mxCell id="9dXQxoBgT0vbuVRmPbSB-47" value="Score" style="text;strokeColor=none;fillColor=none;align=left;verticalAlign=top;spacingLeft=4;spacingRight=4;overflow=hidden;rotatable=0;points=[[0,0.5],[1,0.5]];portConstraint=eastwest;" parent="9dXQxoBgT0vbuVRmPbSB-46" vertex="1">
          <mxGeometry y="26" width="140" height="26" as="geometry" />
        </mxCell>
        <mxCell id="9dXQxoBgT0vbuVRmPbSB-48" value="Date" style="text;strokeColor=none;fillColor=none;align=left;verticalAlign=top;spacingLeft=4;spacingRight=4;overflow=hidden;rotatable=0;points=[[0,0.5],[1,0.5]];portConstraint=eastwest;" parent="9dXQxoBgT0vbuVRmPbSB-46" vertex="1">
          <mxGeometry y="52" width="140" height="26" as="geometry" />
        </mxCell>
        <mxCell id="9dXQxoBgT0vbuVRmPbSB-50" value="" style="endArrow=diamondThin;endFill=1;endSize=24;html=1;entryX=0.5;entryY=1;entryDx=0;entryDy=0;" parent="1" source="9dXQxoBgT0vbuVRmPbSB-46" target="9dXQxoBgT0vbuVRmPbSB-5" edge="1">
          <mxGeometry width="160" relative="1" as="geometry">
            <mxPoint x="350" y="490" as="sourcePoint" />
            <mxPoint x="510" y="490" as="targetPoint" />
            <Array as="points">
              <mxPoint x="120" y="460" />
            </Array>
          </mxGeometry>
        </mxCell>
        <mxCell id="9dXQxoBgT0vbuVRmPbSB-51" value="*" style="text;html=1;align=center;verticalAlign=middle;resizable=0;points=[];autosize=1;" parent="1" vertex="1">
          <mxGeometry x="340" y="440" width="20" height="20" as="geometry" />
        </mxCell>
        <mxCell id="9dXQxoBgT0vbuVRmPbSB-52" value="&lt;div&gt;10&lt;/div&gt;" style="text;html=1;align=center;verticalAlign=middle;resizable=0;points=[];autosize=1;" parent="1" vertex="1">
          <mxGeometry x="60" y="278" width="160" height="20" as="geometry" />
        </mxCell>
        <mxCell id="9dXQxoBgT0vbuVRmPbSB-53" value="Joueurs" style="swimlane;fontStyle=0;childLayout=stackLayout;horizontal=1;startSize=26;fillColor=none;horizontalStack=0;resizeParent=1;resizeParentMax=0;resizeLast=0;collapsible=1;marginBottom=0;" parent="1" vertex="1">
          <mxGeometry x="650" y="278" width="140" height="52" as="geometry">
            <mxRectangle x="620" y="201" width="80" height="26" as="alternateBounds" />
          </mxGeometry>
        </mxCell>
        <mxCell id="9dXQxoBgT0vbuVRmPbSB-57" value="pseudo " style="text;strokeColor=none;fillColor=none;align=left;verticalAlign=top;spacingLeft=4;spacingRight=4;overflow=hidden;rotatable=0;points=[[0,0.5],[1,0.5]];portConstraint=eastwest;" parent="9dXQxoBgT0vbuVRmPbSB-53" vertex="1">
          <mxGeometry y="26" width="140" height="26" as="geometry" />
        </mxCell>
        <mxCell id="9dXQxoBgT0vbuVRmPbSB-60" value="" style="endArrow=none;html=1;edgeStyle=orthogonalEdgeStyle;exitX=-0.029;exitY=0.154;exitDx=0;exitDy=0;exitPerimeter=0;entryX=1;entryY=0.25;entryDx=0;entryDy=0;" parent="1" source="9dXQxoBgT0vbuVRmPbSB-57" target="9dXQxoBgT0vbuVRmPbSB-46" edge="1">
          <mxGeometry relative="1" as="geometry">
            <mxPoint x="480" y="340" as="sourcePoint" />
            <mxPoint x="531" y="427" as="targetPoint" />
            <Array as="points">
              <mxPoint x="646" y="300" />
              <mxPoint x="600" y="300" />
              <mxPoint x="600" y="427" />
              <mxPoint x="500" y="427" />
            </Array>
          </mxGeometry>
        </mxCell>
        <mxCell id="9dXQxoBgT0vbuVRmPbSB-62" value="*" style="edgeLabel;resizable=0;html=1;align=right;verticalAlign=bottom;" parent="9dXQxoBgT0vbuVRmPbSB-60" connectable="0" vertex="1">
          <mxGeometry x="1" relative="1" as="geometry">
            <mxPoint x="10" y="10.94" as="offset" />
          </mxGeometry>
        </mxCell>
        <mxCell id="DPjhXOC8vFuDMg0-mEuA-3" value="" style="endArrow=none;html=1;entryX=1.021;entryY=0.038;entryDx=0;entryDy=0;entryPerimeter=0;exitX=1;exitY=0.5;exitDx=0;exitDy=0;" edge="1" parent="1" source="9dXQxoBgT0vbuVRmPbSB-48" target="9dXQxoBgT0vbuVRmPbSB-31">
          <mxGeometry width="50" height="50" relative="1" as="geometry">
            <mxPoint x="390" y="330" as="sourcePoint" />
            <mxPoint x="440" y="280" as="targetPoint" />
            <Array as="points">
              <mxPoint x="590" y="485" />
              <mxPoint x="590" y="77" />
            </Array>
          </mxGeometry>
        </mxCell>
        <mxCell id="DPjhXOC8vFuDMg0-mEuA-6" value="1" style="text;html=1;align=center;verticalAlign=middle;resizable=0;points=[];autosize=1;" vertex="1" parent="1">
          <mxGeometry x="350" y="60" width="20" height="20" as="geometry" />
        </mxCell>
        <mxCell id="DPjhXOC8vFuDMg0-mEuA-7" value="*" style="text;html=1;align=center;verticalAlign=middle;resizable=0;points=[];autosize=1;" vertex="1" parent="1">
          <mxGeometry x="500" y="470" width="20" height="20" as="geometry" />
        </mxCell>
        <mxCell id="DPjhXOC8vFuDMg0-mEuA-8" value="1" style="text;html=1;align=center;verticalAlign=middle;resizable=0;points=[];autosize=1;" vertex="1" parent="1">
          <mxGeometry x="630" y="278" width="20" height="20" as="geometry" />
        </mxCell>
      </root>
    </mxGraphModel>
  </diagram>
  <diagram id="IT2Lac49X_IgaQmDjSsq" name="Page-2">
    <mxGraphModel dx="981" dy="588" grid="1" gridSize="10" guides="1" tooltips="1" connect="1" arrows="1" fold="1" page="1" pageScale="1" pageWidth="827" pageHeight="1169" math="0" shadow="0">
      <root>
        <mxCell id="woShOk7b1ySBvYqfaEYB-0" />
        <mxCell id="woShOk7b1ySBvYqfaEYB-1" parent="woShOk7b1ySBvYqfaEYB-0" />
        <mxCell id="woShOk7b1ySBvYqfaEYB-6" value="Client" style="swimlane;fontStyle=1;align=center;verticalAlign=top;childLayout=stackLayout;horizontal=1;startSize=26;horizontalStack=0;resizeParent=1;resizeParentMax=0;resizeLast=0;collapsible=1;marginBottom=0;" parent="woShOk7b1ySBvYqfaEYB-1" vertex="1">
          <mxGeometry x="330" y="240" width="120" height="60" as="geometry" />
        </mxCell>
        <mxCell id="woShOk7b1ySBvYqfaEYB-7" value="" style="line;strokeWidth=1;fillColor=none;align=left;verticalAlign=middle;spacingTop=-1;spacingLeft=3;spacingRight=3;rotatable=0;labelPosition=right;points=[];portConstraint=eastwest;" parent="woShOk7b1ySBvYqfaEYB-6" vertex="1">
          <mxGeometry y="26" width="120" height="34" as="geometry" />
        </mxCell>
        <mxCell id="PECCXjCTpFToL_5iDDFT-0" value="JFrame" style="swimlane;fontStyle=1;align=center;verticalAlign=top;childLayout=stackLayout;horizontal=1;startSize=26;horizontalStack=0;resizeParent=1;resizeParentMax=0;resizeLast=0;collapsible=1;marginBottom=0;" parent="woShOk7b1ySBvYqfaEYB-1" vertex="1">
          <mxGeometry x="330" y="60" width="120" height="60" as="geometry" />
        </mxCell>
        <mxCell id="PECCXjCTpFToL_5iDDFT-1" value="" style="line;strokeWidth=1;fillColor=none;align=left;verticalAlign=middle;spacingTop=-1;spacingLeft=3;spacingRight=3;rotatable=0;labelPosition=right;points=[];portConstraint=eastwest;" parent="PECCXjCTpFToL_5iDDFT-0" vertex="1">
          <mxGeometry y="26" width="120" height="34" as="geometry" />
        </mxCell>
        <mxCell id="PECCXjCTpFToL_5iDDFT-2" value="Socket" style="swimlane;fontStyle=1;align=center;verticalAlign=top;childLayout=stackLayout;horizontal=1;startSize=26;horizontalStack=0;resizeParent=1;resizeParentMax=0;resizeLast=0;collapsible=1;marginBottom=0;" parent="woShOk7b1ySBvYqfaEYB-1" vertex="1">
          <mxGeometry x="80" y="130" width="120" height="60" as="geometry" />
        </mxCell>
        <mxCell id="PECCXjCTpFToL_5iDDFT-3" value="" style="line;strokeWidth=1;fillColor=none;align=left;verticalAlign=middle;spacingTop=-1;spacingLeft=3;spacingRight=3;rotatable=0;labelPosition=right;points=[];portConstraint=eastwest;" parent="PECCXjCTpFToL_5iDDFT-2" vertex="1">
          <mxGeometry y="26" width="120" height="34" as="geometry" />
        </mxCell>
        <mxCell id="PECCXjCTpFToL_5iDDFT-4" value="PrintWriter" style="swimlane;fontStyle=1;align=center;verticalAlign=top;childLayout=stackLayout;horizontal=1;startSize=26;horizontalStack=0;resizeParent=1;resizeParentMax=0;resizeLast=0;collapsible=1;marginBottom=0;" parent="woShOk7b1ySBvYqfaEYB-1" vertex="1">
          <mxGeometry x="80" y="270" width="120" height="60" as="geometry" />
        </mxCell>
        <mxCell id="PECCXjCTpFToL_5iDDFT-5" value="" style="line;strokeWidth=1;fillColor=none;align=left;verticalAlign=middle;spacingTop=-1;spacingLeft=3;spacingRight=3;rotatable=0;labelPosition=right;points=[];portConstraint=eastwest;" parent="PECCXjCTpFToL_5iDDFT-4" vertex="1">
          <mxGeometry y="26" width="120" height="34" as="geometry" />
        </mxCell>
        <mxCell id="PECCXjCTpFToL_5iDDFT-8" value="BufferedReader" style="swimlane;fontStyle=1;align=center;verticalAlign=top;childLayout=stackLayout;horizontal=1;startSize=26;horizontalStack=0;resizeParent=1;resizeParentMax=0;resizeLast=0;collapsible=1;marginBottom=0;" parent="woShOk7b1ySBvYqfaEYB-1" vertex="1">
          <mxGeometry x="90" y="500" width="120" height="60" as="geometry" />
        </mxCell>
        <mxCell id="PECCXjCTpFToL_5iDDFT-9" value="" style="line;strokeWidth=1;fillColor=none;align=left;verticalAlign=middle;spacingTop=-1;spacingLeft=3;spacingRight=3;rotatable=0;labelPosition=right;points=[];portConstraint=eastwest;" parent="PECCXjCTpFToL_5iDDFT-8" vertex="1">
          <mxGeometry y="26" width="120" height="34" as="geometry" />
        </mxCell>
        <mxCell id="PECCXjCTpFToL_5iDDFT-10" value="JButton" style="swimlane;fontStyle=1;align=center;verticalAlign=top;childLayout=stackLayout;horizontal=1;startSize=26;horizontalStack=0;resizeParent=1;resizeParentMax=0;resizeLast=0;collapsible=1;marginBottom=0;" parent="woShOk7b1ySBvYqfaEYB-1" vertex="1">
          <mxGeometry x="640" y="150" width="120" height="60" as="geometry" />
        </mxCell>
        <mxCell id="PECCXjCTpFToL_5iDDFT-11" value="" style="line;strokeWidth=1;fillColor=none;align=left;verticalAlign=middle;spacingTop=-1;spacingLeft=3;spacingRight=3;rotatable=0;labelPosition=right;points=[];portConstraint=eastwest;" parent="PECCXjCTpFToL_5iDDFT-10" vertex="1">
          <mxGeometry y="26" width="120" height="34" as="geometry" />
        </mxCell>
        <mxCell id="PECCXjCTpFToL_5iDDFT-12" value="JTextArea" style="swimlane;fontStyle=1;align=center;verticalAlign=top;childLayout=stackLayout;horizontal=1;startSize=26;horizontalStack=0;resizeParent=1;resizeParentMax=0;resizeLast=0;collapsible=1;marginBottom=0;" parent="woShOk7b1ySBvYqfaEYB-1" vertex="1">
          <mxGeometry x="650" y="290" width="120" height="60" as="geometry" />
        </mxCell>
        <mxCell id="PECCXjCTpFToL_5iDDFT-13" value="" style="line;strokeWidth=1;fillColor=none;align=left;verticalAlign=middle;spacingTop=-1;spacingLeft=3;spacingRight=3;rotatable=0;labelPosition=right;points=[];portConstraint=eastwest;" parent="PECCXjCTpFToL_5iDDFT-12" vertex="1">
          <mxGeometry y="26" width="120" height="34" as="geometry" />
        </mxCell>
        <mxCell id="PECCXjCTpFToL_5iDDFT-14" value="Ecouteur" style="swimlane;fontStyle=1;align=center;verticalAlign=top;childLayout=stackLayout;horizontal=1;startSize=26;horizontalStack=0;resizeParent=1;resizeParentMax=0;resizeLast=0;collapsible=1;marginBottom=0;" parent="woShOk7b1ySBvYqfaEYB-1" vertex="1">
          <mxGeometry x="330" y="500" width="120" height="60" as="geometry" />
        </mxCell>
        <mxCell id="PECCXjCTpFToL_5iDDFT-15" value="" style="line;strokeWidth=1;fillColor=none;align=left;verticalAlign=middle;spacingTop=-1;spacingLeft=3;spacingRight=3;rotatable=0;labelPosition=right;points=[];portConstraint=eastwest;" parent="PECCXjCTpFToL_5iDDFT-14" vertex="1">
          <mxGeometry y="26" width="120" height="34" as="geometry" />
        </mxCell>
        <mxCell id="86G_rzTXYWNFgY4GXT5H-0" value="Thread" style="swimlane;fontStyle=1;align=center;verticalAlign=top;childLayout=stackLayout;horizontal=1;startSize=26;horizontalStack=0;resizeParent=1;resizeParentMax=0;resizeLast=0;collapsible=1;marginBottom=0;" parent="woShOk7b1ySBvYqfaEYB-1" vertex="1">
          <mxGeometry x="330" y="360" width="120" height="56" as="geometry" />
        </mxCell>
        <mxCell id="86G_rzTXYWNFgY4GXT5H-1" value="" style="line;strokeWidth=1;fillColor=none;align=left;verticalAlign=middle;spacingTop=-1;spacingLeft=3;spacingRight=3;rotatable=0;labelPosition=right;points=[];portConstraint=eastwest;" parent="86G_rzTXYWNFgY4GXT5H-0" vertex="1">
          <mxGeometry y="26" width="120" height="30" as="geometry" />
        </mxCell>
        <mxCell id="86G_rzTXYWNFgY4GXT5H-3" value="" style="endArrow=block;endSize=16;endFill=0;html=1;exitX=0.5;exitY=0;exitDx=0;exitDy=0;" parent="woShOk7b1ySBvYqfaEYB-1" source="woShOk7b1ySBvYqfaEYB-6" target="PECCXjCTpFToL_5iDDFT-1" edge="1">
          <mxGeometry width="160" relative="1" as="geometry">
            <mxPoint x="440" y="340" as="sourcePoint" />
            <mxPoint x="600" y="340" as="targetPoint" />
          </mxGeometry>
        </mxCell>
        <mxCell id="86G_rzTXYWNFgY4GXT5H-5" value="" style="endArrow=diamondThin;endFill=1;endSize=24;html=1;entryX=0;entryY=0.5;entryDx=0;entryDy=0;" parent="woShOk7b1ySBvYqfaEYB-1" target="woShOk7b1ySBvYqfaEYB-6" edge="1">
          <mxGeometry width="160" relative="1" as="geometry">
            <mxPoint x="200" y="170" as="sourcePoint" />
            <mxPoint x="360" y="170" as="targetPoint" />
          </mxGeometry>
        </mxCell>
        <mxCell id="86G_rzTXYWNFgY4GXT5H-6" value="" style="endArrow=diamondThin;endFill=1;endSize=24;html=1;entryX=0.006;entryY=0.578;entryDx=0;entryDy=0;exitX=1;exitY=0.5;exitDx=0;exitDy=0;entryPerimeter=0;" parent="woShOk7b1ySBvYqfaEYB-1" source="PECCXjCTpFToL_5iDDFT-4" target="woShOk7b1ySBvYqfaEYB-7" edge="1">
          <mxGeometry width="160" relative="1" as="geometry">
            <mxPoint x="209.99999999999977" y="179.9999999999999" as="sourcePoint" />
            <mxPoint x="339.9999999999998" y="280" as="targetPoint" />
          </mxGeometry>
        </mxCell>
        <mxCell id="86G_rzTXYWNFgY4GXT5H-7" value="" style="endArrow=diamondThin;endFill=1;endSize=24;html=1;exitX=1;exitY=0.5;exitDx=0;exitDy=0;" parent="woShOk7b1ySBvYqfaEYB-1" source="PECCXjCTpFToL_5iDDFT-8" edge="1">
          <mxGeometry width="160" relative="1" as="geometry">
            <mxPoint x="199.99999999999977" y="439.9999999999999" as="sourcePoint" />
            <mxPoint x="330" y="530" as="targetPoint" />
          </mxGeometry>
        </mxCell>
        <mxCell id="86G_rzTXYWNFgY4GXT5H-8" value="" style="endArrow=block;endSize=16;endFill=0;html=1;exitX=0.5;exitY=0;exitDx=0;exitDy=0;" parent="woShOk7b1ySBvYqfaEYB-1" source="PECCXjCTpFToL_5iDDFT-14" edge="1">
          <mxGeometry width="160" relative="1" as="geometry">
            <mxPoint x="389.9999999999998" y="476" as="sourcePoint" />
            <mxPoint x="389.40999999999985" y="416" as="targetPoint" />
          </mxGeometry>
        </mxCell>
        <mxCell id="86G_rzTXYWNFgY4GXT5H-9" value="" style="endArrow=diamondThin;endFill=1;endSize=24;html=1;entryX=1;entryY=0.5;entryDx=0;entryDy=0;exitX=0.021;exitY=0.526;exitDx=0;exitDy=0;exitPerimeter=0;" parent="woShOk7b1ySBvYqfaEYB-1" source="PECCXjCTpFToL_5iDDFT-11" target="woShOk7b1ySBvYqfaEYB-6" edge="1">
          <mxGeometry width="160" relative="1" as="geometry">
            <mxPoint x="439.9999999999998" y="169.9999999999999" as="sourcePoint" />
            <mxPoint x="569.9999999999998" y="270" as="targetPoint" />
          </mxGeometry>
        </mxCell>
        <mxCell id="86G_rzTXYWNFgY4GXT5H-10" value="" style="endArrow=diamondThin;endFill=1;endSize=24;html=1;exitX=0;exitY=0.5;exitDx=0;exitDy=0;" parent="woShOk7b1ySBvYqfaEYB-1" source="PECCXjCTpFToL_5iDDFT-12" edge="1">
          <mxGeometry width="160" relative="1" as="geometry">
            <mxPoint x="652.52" y="203.88400000000001" as="sourcePoint" />
            <mxPoint x="450" y="280" as="targetPoint" />
          </mxGeometry>
        </mxCell>
        <mxCell id="86G_rzTXYWNFgY4GXT5H-11" value="" style="endArrow=open;endFill=1;endSize=12;html=1;exitX=1;exitY=0.75;exitDx=0;exitDy=0;" parent="woShOk7b1ySBvYqfaEYB-1" source="PECCXjCTpFToL_5iDDFT-14" edge="1">
          <mxGeometry width="160" relative="1" as="geometry">
            <mxPoint x="490" y="350" as="sourcePoint" />
            <mxPoint x="650" y="350" as="targetPoint" />
          </mxGeometry>
        </mxCell>
      </root>
    </mxGraphModel>
  </diagram>
  <diagram id="gmWEJswhT5qm6IOlA8R6" name="Page-3">
    <mxGraphModel dx="981" dy="588" grid="1" gridSize="10" guides="1" tooltips="1" connect="1" arrows="1" fold="1" page="1" pageScale="1" pageWidth="827" pageHeight="1169" math="0" shadow="0">
      <root>
        <mxCell id="3WXs_BWmUYq2_AG05rb_-0" />
        <mxCell id="3WXs_BWmUYq2_AG05rb_-1" parent="3WXs_BWmUYq2_AG05rb_-0" />
        <mxCell id="3WXs_BWmUYq2_AG05rb_-2" value="Serveur" style="swimlane;fontStyle=1;align=center;verticalAlign=top;childLayout=stackLayout;horizontal=1;startSize=26;horizontalStack=0;resizeParent=1;resizeParentMax=0;resizeLast=0;collapsible=1;marginBottom=0;" parent="3WXs_BWmUYq2_AG05rb_-1" vertex="1">
          <mxGeometry x="230" y="160" width="120" height="60" as="geometry" />
        </mxCell>
        <mxCell id="3WXs_BWmUYq2_AG05rb_-3" value="" style="line;strokeWidth=1;fillColor=none;align=left;verticalAlign=middle;spacingTop=-1;spacingLeft=3;spacingRight=3;rotatable=0;labelPosition=right;points=[];portConstraint=eastwest;" parent="3WXs_BWmUYq2_AG05rb_-2" vertex="1">
          <mxGeometry y="26" width="120" height="34" as="geometry" />
        </mxCell>
        <mxCell id="4BMNqTppo5CSjamNSOWh-16" value="" style="endArrow=diamondThin;endFill=1;endSize=24;html=1;exitX=0.5;exitY=0;exitDx=0;exitDy=0;entryX=1;entryY=1;entryDx=0;entryDy=0;" parent="3WXs_BWmUYq2_AG05rb_-2" source="4BMNqTppo5CSjamNSOWh-2" edge="1">
          <mxGeometry width="160" relative="1" as="geometry">
            <mxPoint x="200" y="70" as="sourcePoint" />
            <mxPoint x="60" y="60" as="targetPoint" />
          </mxGeometry>
        </mxCell>
        <mxCell id="4BMNqTppo5CSjamNSOWh-0" value="RelationClient" style="swimlane;fontStyle=1;align=center;verticalAlign=top;childLayout=stackLayout;horizontal=1;startSize=26;horizontalStack=0;resizeParent=1;resizeParentMax=0;resizeLast=0;collapsible=1;marginBottom=0;" parent="3WXs_BWmUYq2_AG05rb_-1" vertex="1">
          <mxGeometry x="510" y="150" width="120" height="60" as="geometry" />
        </mxCell>
        <mxCell id="4BMNqTppo5CSjamNSOWh-1" value="" style="line;strokeWidth=1;fillColor=none;align=left;verticalAlign=middle;spacingTop=-1;spacingLeft=3;spacingRight=3;rotatable=0;labelPosition=right;points=[];portConstraint=eastwest;" parent="4BMNqTppo5CSjamNSOWh-0" vertex="1">
          <mxGeometry y="26" width="120" height="34" as="geometry" />
        </mxCell>
        <mxCell id="4BMNqTppo5CSjamNSOWh-2" value="SocketServeur" style="swimlane;fontStyle=1;align=center;verticalAlign=top;childLayout=stackLayout;horizontal=1;startSize=26;horizontalStack=0;resizeParent=1;resizeParentMax=0;resizeLast=0;collapsible=1;marginBottom=0;" parent="3WXs_BWmUYq2_AG05rb_-1" vertex="1">
          <mxGeometry x="230" y="330" width="120" height="60" as="geometry" />
        </mxCell>
        <mxCell id="4BMNqTppo5CSjamNSOWh-3" value="" style="line;strokeWidth=1;fillColor=none;align=left;verticalAlign=middle;spacingTop=-1;spacingLeft=3;spacingRight=3;rotatable=0;labelPosition=right;points=[];portConstraint=eastwest;" parent="4BMNqTppo5CSjamNSOWh-2" vertex="1">
          <mxGeometry y="26" width="120" height="34" as="geometry" />
        </mxCell>
        <mxCell id="4BMNqTppo5CSjamNSOWh-4" value="Thread" style="swimlane;fontStyle=1;align=center;verticalAlign=top;childLayout=stackLayout;horizontal=1;startSize=26;horizontalStack=0;resizeParent=1;resizeParentMax=0;resizeLast=0;collapsible=1;marginBottom=0;" parent="3WXs_BWmUYq2_AG05rb_-1" vertex="1">
          <mxGeometry x="230" y="50" width="120" height="56" as="geometry" />
        </mxCell>
        <mxCell id="4BMNqTppo5CSjamNSOWh-5" value="" style="line;strokeWidth=1;fillColor=none;align=left;verticalAlign=middle;spacingTop=-1;spacingLeft=3;spacingRight=3;rotatable=0;labelPosition=right;points=[];portConstraint=eastwest;" parent="4BMNqTppo5CSjamNSOWh-4" vertex="1">
          <mxGeometry y="26" width="120" height="30" as="geometry" />
        </mxCell>
        <mxCell id="4BMNqTppo5CSjamNSOWh-17" value="" style="endArrow=diamondThin;endFill=0;endSize=24;html=1;exitX=0.5;exitY=0;exitDx=0;exitDy=0;" parent="4BMNqTppo5CSjamNSOWh-4" source="3WXs_BWmUYq2_AG05rb_-2" edge="1">
          <mxGeometry width="160" relative="1" as="geometry">
            <mxPoint x="-100" y="56" as="sourcePoint" />
            <mxPoint x="60" y="56" as="targetPoint" />
          </mxGeometry>
        </mxCell>
        <mxCell id="4BMNqTppo5CSjamNSOWh-6" value="Socket" style="swimlane;fontStyle=1;align=center;verticalAlign=top;childLayout=stackLayout;horizontal=1;startSize=26;horizontalStack=0;resizeParent=1;resizeParentMax=0;resizeLast=0;collapsible=1;marginBottom=0;" parent="3WXs_BWmUYq2_AG05rb_-1" vertex="1">
          <mxGeometry x="720" y="50" width="90" height="56" as="geometry" />
        </mxCell>
        <mxCell id="4BMNqTppo5CSjamNSOWh-7" value="" style="line;strokeWidth=1;fillColor=none;align=left;verticalAlign=middle;spacingTop=-1;spacingLeft=3;spacingRight=3;rotatable=0;labelPosition=right;points=[];portConstraint=eastwest;" parent="4BMNqTppo5CSjamNSOWh-6" vertex="1">
          <mxGeometry y="26" width="90" height="30" as="geometry" />
        </mxCell>
        <mxCell id="4BMNqTppo5CSjamNSOWh-8" value="BufferedReader" style="swimlane;fontStyle=1;align=center;verticalAlign=top;childLayout=stackLayout;horizontal=1;startSize=26;horizontalStack=0;resizeParent=1;resizeParentMax=0;resizeLast=0;collapsible=1;marginBottom=0;" parent="3WXs_BWmUYq2_AG05rb_-1" vertex="1">
          <mxGeometry x="690" y="160" width="120" height="60" as="geometry" />
        </mxCell>
        <mxCell id="4BMNqTppo5CSjamNSOWh-9" value="" style="line;strokeWidth=1;fillColor=none;align=left;verticalAlign=middle;spacingTop=-1;spacingLeft=3;spacingRight=3;rotatable=0;labelPosition=right;points=[];portConstraint=eastwest;" parent="4BMNqTppo5CSjamNSOWh-8" vertex="1">
          <mxGeometry y="26" width="120" height="34" as="geometry" />
        </mxCell>
        <mxCell id="4BMNqTppo5CSjamNSOWh-10" value="PrintWriter" style="swimlane;fontStyle=1;align=center;verticalAlign=top;childLayout=stackLayout;horizontal=1;startSize=26;horizontalStack=0;resizeParent=1;resizeParentMax=0;resizeLast=0;collapsible=1;marginBottom=0;" parent="3WXs_BWmUYq2_AG05rb_-1" vertex="1">
          <mxGeometry x="690" y="280" width="120" height="60" as="geometry" />
        </mxCell>
        <mxCell id="4BMNqTppo5CSjamNSOWh-11" value="" style="line;strokeWidth=1;fillColor=none;align=left;verticalAlign=middle;spacingTop=-1;spacingLeft=3;spacingRight=3;rotatable=0;labelPosition=right;points=[];portConstraint=eastwest;" parent="4BMNqTppo5CSjamNSOWh-10" vertex="1">
          <mxGeometry y="26" width="120" height="34" as="geometry" />
        </mxCell>
        <mxCell id="4BMNqTppo5CSjamNSOWh-12" value="" style="endArrow=diamondThin;endFill=1;endSize=24;html=1;exitX=0;exitY=0.5;exitDx=0;exitDy=0;entryX=1;entryY=0.25;entryDx=0;entryDy=0;" parent="3WXs_BWmUYq2_AG05rb_-1" source="4BMNqTppo5CSjamNSOWh-6" target="4BMNqTppo5CSjamNSOWh-0" edge="1">
          <mxGeometry width="160" relative="1" as="geometry">
            <mxPoint x="630" y="100" as="sourcePoint" />
            <mxPoint x="490" y="220" as="targetPoint" />
          </mxGeometry>
        </mxCell>
        <mxCell id="4BMNqTppo5CSjamNSOWh-13" value="" style="endArrow=diamondThin;endFill=1;endSize=24;html=1;exitX=0;exitY=0.75;exitDx=0;exitDy=0;entryX=1;entryY=0.5;entryDx=0;entryDy=0;" parent="3WXs_BWmUYq2_AG05rb_-1" source="4BMNqTppo5CSjamNSOWh-8" target="4BMNqTppo5CSjamNSOWh-0" edge="1">
          <mxGeometry width="160" relative="1" as="geometry">
            <mxPoint x="730" y="88" as="sourcePoint" />
            <mxPoint x="610" y="305" as="targetPoint" />
          </mxGeometry>
        </mxCell>
        <mxCell id="4BMNqTppo5CSjamNSOWh-14" value="" style="endArrow=diamondThin;endFill=1;endSize=24;html=1;exitX=0;exitY=0.5;exitDx=0;exitDy=0;entryX=1;entryY=1;entryDx=0;entryDy=0;" parent="3WXs_BWmUYq2_AG05rb_-1" source="4BMNqTppo5CSjamNSOWh-10" target="4BMNqTppo5CSjamNSOWh-0" edge="1">
          <mxGeometry width="160" relative="1" as="geometry">
            <mxPoint x="700" y="215" as="sourcePoint" />
            <mxPoint x="610" y="320" as="targetPoint" />
          </mxGeometry>
        </mxCell>
        <mxCell id="4BMNqTppo5CSjamNSOWh-15" value="" style="endArrow=diamondThin;endFill=1;endSize=24;html=1;exitX=0;exitY=0.5;exitDx=0;exitDy=0;" parent="3WXs_BWmUYq2_AG05rb_-1" source="4BMNqTppo5CSjamNSOWh-0" edge="1">
          <mxGeometry width="160" relative="1" as="geometry">
            <mxPoint x="430" y="270" as="sourcePoint" />
            <mxPoint x="350" y="180" as="targetPoint" />
          </mxGeometry>
        </mxCell>
        <mxCell id="4BMNqTppo5CSjamNSOWh-18" value="Partie" style="swimlane;fontStyle=1;align=center;verticalAlign=top;childLayout=stackLayout;horizontal=1;startSize=26;horizontalStack=0;resizeParent=1;resizeParentMax=0;resizeLast=0;collapsible=1;marginBottom=0;" parent="3WXs_BWmUYq2_AG05rb_-1" vertex="1">
          <mxGeometry x="510" y="330" width="120" height="60" as="geometry" />
        </mxCell>
        <mxCell id="4BMNqTppo5CSjamNSOWh-19" value="" style="line;strokeWidth=1;fillColor=none;align=left;verticalAlign=middle;spacingTop=-1;spacingLeft=3;spacingRight=3;rotatable=0;labelPosition=right;points=[];portConstraint=eastwest;" parent="4BMNqTppo5CSjamNSOWh-18" vertex="1">
          <mxGeometry y="26" width="120" height="34" as="geometry" />
        </mxCell>
        <mxCell id="hNgL6HL40sGXpH_6OpUY-0" value="" style="endArrow=open;endFill=1;endSize=12;html=1;entryX=1;entryY=1;entryDx=0;entryDy=0;exitX=0.25;exitY=0;exitDx=0;exitDy=0;" parent="3WXs_BWmUYq2_AG05rb_-1" source="4BMNqTppo5CSjamNSOWh-18" target="3WXs_BWmUYq2_AG05rb_-2" edge="1">
          <mxGeometry width="160" relative="1" as="geometry">
            <mxPoint x="330" y="300" as="sourcePoint" />
            <mxPoint x="490" y="300" as="targetPoint" />
          </mxGeometry>
        </mxCell>
        <mxCell id="hNgL6HL40sGXpH_6OpUY-1" value="1" style="edgeLabel;html=1;align=center;verticalAlign=middle;resizable=0;points=[];" parent="hNgL6HL40sGXpH_6OpUY-0" vertex="1" connectable="0">
          <mxGeometry x="0.8012" y="-2" relative="1" as="geometry">
            <mxPoint as="offset" />
          </mxGeometry>
        </mxCell>
        <mxCell id="hNgL6HL40sGXpH_6OpUY-2" value="&lt;div&gt;0..1&lt;/div&gt;" style="edgeLabel;html=1;align=center;verticalAlign=middle;resizable=0;points=[];" parent="hNgL6HL40sGXpH_6OpUY-0" vertex="1" connectable="0">
          <mxGeometry x="-0.8577" y="1" relative="1" as="geometry">
            <mxPoint as="offset" />
          </mxGeometry>
        </mxCell>
      </root>
    </mxGraphModel>
  </diagram>
  <diagram id="JRgM8o5kX7bMeDiEAzdV" name="Page-4">
    <mxGraphModel dx="981" dy="588" grid="1" gridSize="10" guides="1" tooltips="1" connect="1" arrows="1" fold="1" page="1" pageScale="1" pageWidth="827" pageHeight="1169" math="0" shadow="0">
      <root>
        <mxCell id="XwxpIZIRBu87c4M6l9PW-0" />
        <mxCell id="XwxpIZIRBu87c4M6l9PW-1" parent="XwxpIZIRBu87c4M6l9PW-0" />
        <mxCell id="XwxpIZIRBu87c4M6l9PW-2" value="AdminKahoot" style="swimlane;fontStyle=1;align=center;verticalAlign=top;childLayout=stackLayout;horizontal=1;startSize=26;horizontalStack=0;resizeParent=1;resizeParentMax=0;resizeLast=0;collapsible=1;marginBottom=0;" parent="XwxpIZIRBu87c4M6l9PW-1" vertex="1">
          <mxGeometry x="330" y="180" width="120" height="60" as="geometry" />
        </mxCell>
        <mxCell id="XwxpIZIRBu87c4M6l9PW-3" value="" style="line;strokeWidth=1;fillColor=none;align=left;verticalAlign=middle;spacingTop=-1;spacingLeft=3;spacingRight=3;rotatable=0;labelPosition=right;points=[];portConstraint=eastwest;" parent="XwxpIZIRBu87c4M6l9PW-2" vertex="1">
          <mxGeometry y="26" width="120" height="34" as="geometry" />
        </mxCell>
        <mxCell id="R6DM1szwDpWbuuSbONnf-0" value="JFrame" style="swimlane;fontStyle=1;align=center;verticalAlign=top;childLayout=stackLayout;horizontal=1;startSize=26;horizontalStack=0;resizeParent=1;resizeParentMax=0;resizeLast=0;collapsible=1;marginBottom=0;" vertex="1" parent="XwxpIZIRBu87c4M6l9PW-1">
          <mxGeometry x="330" y="30" width="120" height="60" as="geometry" />
        </mxCell>
        <mxCell id="R6DM1szwDpWbuuSbONnf-1" value="" style="line;strokeWidth=1;fillColor=none;align=left;verticalAlign=middle;spacingTop=-1;spacingLeft=3;spacingRight=3;rotatable=0;labelPosition=right;points=[];portConstraint=eastwest;" vertex="1" parent="R6DM1szwDpWbuuSbONnf-0">
          <mxGeometry y="26" width="120" height="34" as="geometry" />
        </mxCell>
        <mxCell id="R6DM1szwDpWbuuSbONnf-2" value="JLabel" style="swimlane;fontStyle=1;align=center;verticalAlign=top;childLayout=stackLayout;horizontal=1;startSize=26;horizontalStack=0;resizeParent=1;resizeParentMax=0;resizeLast=0;collapsible=1;marginBottom=0;" vertex="1" parent="XwxpIZIRBu87c4M6l9PW-1">
          <mxGeometry x="640" y="50" width="120" height="60" as="geometry" />
        </mxCell>
        <mxCell id="R6DM1szwDpWbuuSbONnf-3" value="" style="line;strokeWidth=1;fillColor=none;align=left;verticalAlign=middle;spacingTop=-1;spacingLeft=3;spacingRight=3;rotatable=0;labelPosition=right;points=[];portConstraint=eastwest;" vertex="1" parent="R6DM1szwDpWbuuSbONnf-2">
          <mxGeometry y="26" width="120" height="34" as="geometry" />
        </mxCell>
        <mxCell id="R6DM1szwDpWbuuSbONnf-4" value="JButton" style="swimlane;fontStyle=1;align=center;verticalAlign=top;childLayout=stackLayout;horizontal=1;startSize=26;horizontalStack=0;resizeParent=1;resizeParentMax=0;resizeLast=0;collapsible=1;marginBottom=0;" vertex="1" parent="XwxpIZIRBu87c4M6l9PW-1">
          <mxGeometry x="640" y="140" width="120" height="60" as="geometry" />
        </mxCell>
        <mxCell id="R6DM1szwDpWbuuSbONnf-5" value="" style="line;strokeWidth=1;fillColor=none;align=left;verticalAlign=middle;spacingTop=-1;spacingLeft=3;spacingRight=3;rotatable=0;labelPosition=right;points=[];portConstraint=eastwest;" vertex="1" parent="R6DM1szwDpWbuuSbONnf-4">
          <mxGeometry y="26" width="120" height="34" as="geometry" />
        </mxCell>
        <mxCell id="R6DM1szwDpWbuuSbONnf-6" value="JTextField" style="swimlane;fontStyle=1;align=center;verticalAlign=top;childLayout=stackLayout;horizontal=1;startSize=26;horizontalStack=0;resizeParent=1;resizeParentMax=0;resizeLast=0;collapsible=1;marginBottom=0;" vertex="1" parent="XwxpIZIRBu87c4M6l9PW-1">
          <mxGeometry x="640" y="230" width="120" height="60" as="geometry" />
        </mxCell>
        <mxCell id="R6DM1szwDpWbuuSbONnf-7" value="" style="line;strokeWidth=1;fillColor=none;align=left;verticalAlign=middle;spacingTop=-1;spacingLeft=3;spacingRight=3;rotatable=0;labelPosition=right;points=[];portConstraint=eastwest;" vertex="1" parent="R6DM1szwDpWbuuSbONnf-6">
          <mxGeometry y="26" width="120" height="34" as="geometry" />
        </mxCell>
        <mxCell id="R6DM1szwDpWbuuSbONnf-8" value="" style="endArrow=block;endSize=16;endFill=0;html=1;exitX=0.5;exitY=0;exitDx=0;exitDy=0;" edge="1" parent="XwxpIZIRBu87c4M6l9PW-1" target="R6DM1szwDpWbuuSbONnf-1">
          <mxGeometry width="160" relative="1" as="geometry">
            <mxPoint x="390" y="180" as="sourcePoint" />
            <mxPoint x="600" y="280" as="targetPoint" />
          </mxGeometry>
        </mxCell>
        <mxCell id="R6DM1szwDpWbuuSbONnf-9" value="" style="endArrow=diamondThin;endFill=1;endSize=24;html=1;entryX=1;entryY=0.25;entryDx=0;entryDy=0;exitX=0;exitY=0.5;exitDx=0;exitDy=0;" edge="1" parent="XwxpIZIRBu87c4M6l9PW-1" source="R6DM1szwDpWbuuSbONnf-2" target="XwxpIZIRBu87c4M6l9PW-2">
          <mxGeometry width="160" relative="1" as="geometry">
            <mxPoint x="209.99999999999977" y="119.99999999999989" as="sourcePoint" />
            <mxPoint x="330.72" y="225.65200000000004" as="targetPoint" />
          </mxGeometry>
        </mxCell>
        <mxCell id="R6DM1szwDpWbuuSbONnf-10" value="" style="endArrow=diamondThin;endFill=1;endSize=24;html=1;entryX=1;entryY=0.5;entryDx=0;entryDy=0;exitX=0.021;exitY=0.526;exitDx=0;exitDy=0;exitPerimeter=0;" edge="1" parent="XwxpIZIRBu87c4M6l9PW-1" source="R6DM1szwDpWbuuSbONnf-5">
          <mxGeometry width="160" relative="1" as="geometry">
            <mxPoint x="439.9999999999998" y="109.99999999999989" as="sourcePoint" />
            <mxPoint x="450" y="210" as="targetPoint" />
          </mxGeometry>
        </mxCell>
        <mxCell id="R6DM1szwDpWbuuSbONnf-11" value="" style="endArrow=diamondThin;endFill=1;endSize=24;html=1;exitX=0;exitY=0.5;exitDx=0;exitDy=0;" edge="1" parent="XwxpIZIRBu87c4M6l9PW-1" source="R6DM1szwDpWbuuSbONnf-6">
          <mxGeometry width="160" relative="1" as="geometry">
            <mxPoint x="652.52" y="143.88400000000001" as="sourcePoint" />
            <mxPoint x="450" y="230" as="targetPoint" />
          </mxGeometry>
        </mxCell>
        <mxCell id="_wQla7NAIR7jKk8og34v-0" value="RequetteBddKahoot" style="swimlane;fontStyle=1;align=center;verticalAlign=top;childLayout=stackLayout;horizontal=1;startSize=26;horizontalStack=0;resizeParent=1;resizeParentMax=0;resizeLast=0;collapsible=1;marginBottom=0;" vertex="1" parent="XwxpIZIRBu87c4M6l9PW-1">
          <mxGeometry x="20" y="210" width="150" height="60" as="geometry" />
        </mxCell>
        <mxCell id="_wQla7NAIR7jKk8og34v-1" value="" style="line;strokeWidth=1;fillColor=none;align=left;verticalAlign=middle;spacingTop=-1;spacingLeft=3;spacingRight=3;rotatable=0;labelPosition=right;points=[];portConstraint=eastwest;" vertex="1" parent="_wQla7NAIR7jKk8og34v-0">
          <mxGeometry y="26" width="150" height="34" as="geometry" />
        </mxCell>
        <mxCell id="dlkErs8hLAGjvRsXlQRw-0" value="" style="endArrow=open;endFill=1;endSize=12;html=1;entryX=0;entryY=0.25;entryDx=0;entryDy=0;" edge="1" parent="XwxpIZIRBu87c4M6l9PW-1" target="XwxpIZIRBu87c4M6l9PW-2">
          <mxGeometry width="160" relative="1" as="geometry">
            <mxPoint x="170" y="250" as="sourcePoint" />
            <mxPoint x="20" y="100" as="targetPoint" />
          </mxGeometry>
        </mxCell>
      </root>
    </mxGraphModel>
  </diagram>
</mxfile>
